# xmcd
#
# Track frame offsets: 
#        182
#        17135
#        31507
#        43982
#        67330
#        86765
#        108165
#        133500
#        150432
#
# Disc length: 2254 seconds
#
# Revision: 2
# Processed by: cddbd v1.5.2PL0 Copyright (c) Steve Scherf et al.
# Submitted via: ExactAudioCopyFreeDBPlugin 1.0
#
DISCID=6e08cc09
DTITLE=Sam Cooke - Live at the Harlem Square Club, 1963
DYEAR=1985
DGENRE=Soul
TTITLE0=Feel It
TTITLE1=Chain Chang
TTITLE2=Cupid
TTITLE3=Medley:  It's All Right - For Sentimental Reasons
TTITLE4=Twistin' the Night Away
TTITLE5=Somebody Have Mercy
TTITLE6=Bring it on Home to Me
TTITLE7=Nothing Can Change This Love
TTITLE8=Having a Party
EXTD=YEAR: 1963
EXTT0=
EXTT1=
EXTT2=
EXTT3=
EXTT4=
EXTT5=
EXTT6=
EXTT7=
EXTT8=
PLAYORDER=
